<svg width="1200" height="760" viewBox="0 0 1200 760" fill="none" xmlns="http://www.w3.org/2000/svg">
  <defs>
    <linearGradient id="bg2" x1="140" y1="60" x2="1020" y2="700" gradientUnits="userSpaceOnUse">
      <stop stop-color="#FFF9F2"/>
      <stop offset="1" stop-color="#F2F7FF"/>
    </linearGradient>
    <filter id="shadow2" x="0" y="0" width="1200" height="760" filterUnits="userSpaceOnUse" color-interpolation-filters="sRGB">
      <feDropShadow dx="0" dy="20" stdDeviation="24" flood-color="#1B2C45" flood-opacity="0.12"/>
    </filter>
  </defs>

  <rect x="36" y="36" width="1128" height="688" rx="36" fill="url(#bg2)"/>
  <rect x="36" y="36" width="1128" height="688" rx="36" stroke="#E8EDF4"/>

  <g filter="url(#shadow2)">
    <rect x="98" y="112" width="350" height="536" rx="34" fill="white"/>
    <rect x="98" y="112" width="350" height="536" rx="34" stroke="#E7ECF2"/>
    <text x="273" y="162" text-anchor="middle" fill="#C45500" font-size="26" font-family="Avenir Next, Segoe UI, sans-serif" font-weight="800" letter-spacing="4">HOSTNAMES</text>

    <rect x="140" y="214" width="266" height="92" rx="22" fill="#FFF7F0" stroke="#FFD4AF"/>
    <text x="273" y="256" text-anchor="middle" fill="#1C2D48" font-size="26" font-family="Avenir Next, Segoe UI, sans-serif" font-weight="700">grafana.midominio.com</text>
    <text x="273" y="286" text-anchor="middle" fill="#68778C" font-size="18" font-family="Avenir Next, Segoe UI, sans-serif">Observabilidad</text>

    <rect x="140" y="338" width="266" height="92" rx="22" fill="#FFF7F0" stroke="#FFD4AF"/>
    <text x="273" y="380" text-anchor="middle" fill="#1C2D48" font-size="26" font-family="Avenir Next, Segoe UI, sans-serif" font-weight="700">api.midominio.com</text>
    <text x="273" y="410" text-anchor="middle" fill="#68778C" font-size="18" font-family="Avenir Next, Segoe UI, sans-serif">Backend interno</text>

    <rect x="140" y="462" width="266" height="92" rx="22" fill="#FFF7F0" stroke="#FFD4AF"/>
    <text x="273" y="504" text-anchor="middle" fill="#1C2D48" font-size="26" font-family="Avenir Next, Segoe UI, sans-serif" font-weight="700">app.midominio.com</text>
    <text x="273" y="534" text-anchor="middle" fill="#68778C" font-size="18" font-family="Avenir Next, Segoe UI, sans-serif">Aplicación principal</text>
  </g>

  <g filter="url(#shadow2)">
    <rect x="482" y="210" width="236" height="340" rx="34" fill="#FFF4E8"/>
    <rect x="482" y="210" width="236" height="340" rx="34" stroke="#FFD1A6"/>
    <text x="600" y="260" text-anchor="middle" fill="#C45500" font-size="26" font-family="Avenir Next, Segoe UI, sans-serif" font-weight="800" letter-spacing="4">TUNNEL</text>

    <rect x="528" y="314" width="144" height="132" rx="28" fill="white" stroke="#F3C8A2"/>
    <text x="600" y="362" text-anchor="middle" fill="#1C2D48" font-size="28" font-family="Avenir Next, Segoe UI, sans-serif" font-weight="700">Routing</text>
    <text x="600" y="398" text-anchor="middle" fill="#68778C" font-size="20" font-family="Avenir Next, Segoe UI, sans-serif">hostname</text>
    <text x="600" y="426" text-anchor="middle" fill="#68778C" font-size="20" font-family="Avenir Next, Segoe UI, sans-serif">→ servicio</text>
  </g>

  <g filter="url(#shadow2)">
    <rect x="752" y="112" width="350" height="536" rx="34" fill="#F3F8FF"/>
    <rect x="752" y="112" width="350" height="536" rx="34" stroke="#D8E5F6"/>
    <text x="927" y="162" text-anchor="middle" fill="#4B83D7" font-size="26" font-family="Avenir Next, Segoe UI, sans-serif" font-weight="800" letter-spacing="4">ORÍGENES</text>

    <rect x="794" y="214" width="266" height="92" rx="22" fill="white" stroke="#D4E2F4"/>
    <text x="927" y="256" text-anchor="middle" fill="#1C2D48" font-size="26" font-family="Avenir Next, Segoe UI, sans-serif" font-weight="700">10.10.10.30:3000</text>
    <text x="927" y="286" text-anchor="middle" fill="#68778C" font-size="18" font-family="Avenir Next, Segoe UI, sans-serif">Grafana</text>

    <rect x="794" y="338" width="266" height="92" rx="22" fill="white" stroke="#D4E2F4"/>
    <text x="927" y="380" text-anchor="middle" fill="#1C2D48" font-size="26" font-family="Avenir Next, Segoe UI, sans-serif" font-weight="700">10.10.20.15:8080</text>
    <text x="927" y="410" text-anchor="middle" fill="#68778C" font-size="18" font-family="Avenir Next, Segoe UI, sans-serif">API</text>

    <rect x="794" y="462" width="266" height="92" rx="22" fill="white" stroke="#D4E2F4"/>
    <text x="927" y="504" text-anchor="middle" fill="#1C2D48" font-size="26" font-family="Avenir Next, Segoe UI, sans-serif" font-weight="700">192.168.1.50:8080</text>
    <text x="927" y="534" text-anchor="middle" fill="#68778C" font-size="18" font-family="Avenir Next, Segoe UI, sans-serif">Aplicación web</text>
  </g>

  <path d="M406 260C438 260 446 260 482 260" stroke="#FF7A1A" stroke-width="8" stroke-linecap="round" stroke-dasharray="10 16"/>
  <path d="M406 384C438 384 446 384 482 384" stroke="#FF7A1A" stroke-width="8" stroke-linecap="round" stroke-dasharray="10 16"/>
  <path d="M406 508C438 508 446 508 482 508" stroke="#FF7A1A" stroke-width="8" stroke-linecap="round" stroke-dasharray="10 16"/>

  <path d="M718 260C752 260 760 260 794 260" stroke="#4B83D7" stroke-width="8" stroke-linecap="round" stroke-dasharray="10 16"/>
  <path d="M718 384C752 384 760 384 794 384" stroke="#4B83D7" stroke-width="8" stroke-linecap="round" stroke-dasharray="10 16"/>
  <path d="M718 508C752 508 760 508 794 508" stroke="#4B83D7" stroke-width="8" stroke-linecap="round" stroke-dasharray="10 16"/>
</svg>
